<?xml version="1.0" encoding="UTF-8" standalone="no"?>
<svg
   width="734.15393"
   height="472.64786"
   viewBox="0 0 194.24489 125.05474"
   version="1.1"
   id="svg8"
   xmlns="http://www.w3.org/2000/svg"
   xmlns:svg="http://www.w3.org/2000/svg"
   xmlns:rdf="http://www.w3.org/1999/02/22-rdf-syntax-ns#"
   xmlns:cc="http://creativecommons.org/ns#"
   xmlns:dc="http://purl.org/dc/elements/1.1/">
  <defs
     id="defs2">
    <rect
       x="45.619209"
       y="49.415279"
       width="25.069881"
       height="14.405828"
       id="rect1097" />
    <rect
       x="45.619209"
       y="49.415279"
       width="25.069881"
       height="14.405828"
       id="rect1242" />
    <rect
       x="45.619209"
       y="49.415279"
       width="25.069881"
       height="14.405828"
       id="rect945" />
    <filter
       style="color-interpolation-filters:sRGB"
       id="filter1104"
       x="-0.069484362"
       y="-0.10188384"
       width="1.1389687"
       height="1.2037677">
      <feGaussianBlur
         stdDeviation="3 1"
         result="blur"
         id="feGaussianBlur1102" />
    </filter>
    <rect
       x="45.619209"
       y="49.415279"
       width="25.069881"
       height="14.405828"
       id="rect1116" />
    <filter
       style="color-interpolation-filters:sRGB"
       id="filter1136"
       x="-0.041544276"
       y="-0.067937725"
       width="1.0830922"
       height="1.1358795">
      <feGaussianBlur
         stdDeviation="6.65586 6.05169"
         result="blur"
         id="feGaussianBlur1134" />
    </filter>
  </defs>
  <metadata
     id="metadata5">
    <rdf:RDF>
      <cc:Work
         rdf:about="">
        <dc:format>image/svg+xml</dc:format>
        <dc:type
           rdf:resource="http://purl.org/dc/dcmitype/StillImage" />
      </cc:Work>
    </rdf:RDF>
  </metadata>
  <g
     id="layer1"
     style="display:none"
     transform="translate(15.707517,8.0737052)">
    <path
       style="fill:#776524;fill-opacity:1;stroke:#000000;stroke-width:0.264583px;stroke-linecap:butt;stroke-linejoin:miter;stroke-opacity:1"
       d="m 35.262826,46.254583 c 32.156278,11.470672 62.984049,9.718461 93.052774,0.41131 -7.18513,-8.62289 -84.972633,-10.860599 -93.052774,-0.41131 v 0"
       id="path1009" />
    <path
       style="fill:none;stroke:#000000;stroke-width:2;stroke-linecap:butt;stroke-linejoin:miter;stroke-miterlimit:4;stroke-dasharray:none;stroke-opacity:1"
       d="m 35.262825,46.254582 c 6.369253,-9.723423 85.806055,-8.610147 93.052775,0.411313"
       id="path889" />
  </g>
  <g
     id="g1240"
     style="display:inline"
     transform="translate(38.4354,-19.603831)">
    <text
       xml:space="preserve"
       style="display:inline;font-style:normal;font-variant:normal;font-weight:normal;font-stretch:normal;font-size:22.326px;line-height:1.25;font-family:'Goudy Old Style';-inkscape-font-specification:'Goudy Old Style';letter-spacing:0px;word-spacing:0px;fill:#f5f5f5;fill-opacity:1;stroke:none;stroke-width:0.264583"
       x="44.021572"
       y="87.62265"
       id="text1228"
       transform="scale(1.045974,0.95604668)"><tspan
         id="tspan1226"
         x="44.021572"
         y="87.62265"
         style="font-style:normal;font-variant:normal;font-weight:normal;font-stretch:normal;font-size:22.326px;font-family:'Goudy Old Style';-inkscape-font-specification:'Goudy Old Style';fill:#f5f5f5;fill-opacity:1;stroke-width:0.264583">20</tspan></text>
    <text
       xml:space="preserve"
       style="font-style:normal;font-variant:normal;font-weight:normal;font-stretch:normal;font-size:19.6206px;line-height:1.25;font-family:'Goudy Old Style';-inkscape-font-specification:'Goudy Old Style';letter-spacing:0px;word-spacing:0px;display:inline;fill:#f6f6f6;fill-opacity:1;stroke:none;stroke-width:0.264583"
       x="-39.008694"
       y="79.845184"
       id="text1234"
       transform="matrix(0.58497489,-1.0303591,0.76406749,0.36366702,0,0)"><tspan
         id="tspan1232"
         x="-39.008694"
         y="79.845184"
         style="font-style:normal;font-variant:normal;font-weight:normal;font-stretch:normal;font-size:19.6206px;font-family:'Goudy Old Style';-inkscape-font-specification:'Goudy Old Style';fill:#f6f6f6;fill-opacity:1;stroke-width:0.264583">2</tspan></text>
    <text
       xml:space="preserve"
       style="font-style:normal;font-variant:normal;font-weight:normal;font-stretch:normal;font-size:18.8635px;line-height:1.25;font-family:'Goudy Old Style';-inkscape-font-specification:'Goudy Old Style';letter-spacing:0px;word-spacing:0px;display:inline;fill:#f5f5f5;fill-opacity:1;stroke:none;stroke-width:0.264583"
       x="72.91732"
       y="-27.216368"
       id="text1238"
       transform="matrix(0.65669275,0.92165113,-0.80340883,0.39521882,0,0)"><tspan
         id="tspan1236"
         x="72.91732"
         y="-27.216368"
         style="font-style:normal;font-variant:normal;font-weight:normal;font-stretch:normal;font-size:18.8635px;font-family:'Goudy Old Style';-inkscape-font-specification:'Goudy Old Style';fill:#f5f5f5;fill-opacity:1;stroke-width:0.264583">14</tspan></text>
    <path
       style="display:inline;stroke:#808080;stroke-width:1.5;stroke-miterlimit:4;stroke-dasharray:none;stroke-opacity:1;fill:none;stroke-linecap:butt;stroke-linejoin:miter"
       d="M 19.556753,50.900421 32.12446,90.323337 h 51.329163 l 14.15521,-39.422916"
       id="path1214" />
    <path
       style="display:inline;stroke:#808080;stroke-width:1.5;stroke-miterlimit:4;stroke-dasharray:none;stroke-opacity:1;fill:none;stroke-linecap:butt;stroke-linejoin:miter"
       d="M 58.574633,45.476462 32.12446,90.323337"
       id="path1216" />
    <path
       style="display:inline;stroke:#808080;stroke-width:1.5;stroke-miterlimit:4;stroke-dasharray:none;stroke-opacity:1;fill:none;stroke-linecap:butt;stroke-linejoin:miter"
       d="M 83.453623,90.323337 58.574633,45.476462"
       id="path1218" />
    <path
       style="fill:none;stroke:#808080;stroke-width:1.5;stroke-linecap:butt;stroke-linejoin:miter;stroke-miterlimit:4;stroke-dasharray:none;stroke-opacity:1"
       d="m 18.895293,50.90042 39.67934,-5.423959 39.827948,5.423959"
       id="path1001" />
    <path
       style="fill:none;stroke:#808080;stroke-width:1.5;stroke-linecap:butt;stroke-linejoin:miter;stroke-miterlimit:4;stroke-dasharray:none;stroke-opacity:1"
       d="M 58.574633,45.476461 V 28.940003"
       id="path1003" />
    <path
       style="fill:none;fill-opacity:1;stroke:#808080;stroke-width:1.5;stroke-linecap:butt;stroke-linejoin:round;stroke-miterlimit:4;stroke-dasharray:none;stroke-opacity:1"
       d="m 58.574633,28.940003 39.82795,21.960418 -1.45521,44.211632 C 73.092826,94.818343 48.363688,94.894118 20.615085,94.616315 L 18.895294,50.900421 Z"
       id="path1230" />
  </g>
  <g
     id="layer11"
     style="display:inline"
     transform="translate(3.2323041,-18.457428)">
    <path
       style="fill:#e3e3e3;fill-opacity:1;stroke:#838383;stroke-width:0.2;stroke-linecap:butt;stroke-linejoin:miter;stroke-miterlimit:4;stroke-dasharray:none;stroke-opacity:1"
       d="m 12.954732,48.608442 c 13.769832,7.524407 14.105479,69.561208 35.321873,50.800002 12.850337,32.654346 86.754645,25.055386 91.227285,0.598396 19.16558,19.40674 22.34161,-42.874635 35.32187,-50.799997 -21.89383,4.359195 -25.68634,14.960226 -34.03495,23.990186 C 82.042963,82.129826 94.337872,67.704575 47.738037,72.785715 40.420623,64.115621 36.870272,54.907375 12.954732,48.608442 Z"
       id="path1196" />
  </g>
  <g
     id="layer4"
     transform="translate(38.4354,-19.603831)"
     style="display:inline">
    <path
       style="fill:#fafafa;fill-opacity:1;stroke:#000000;stroke-width:1;stroke-linecap:butt;stroke-linejoin:round;stroke-miterlimit:4;stroke-dasharray:none;stroke-opacity:1"
       d="m 18.755402,73.89176 c 12.829385,-1.568349 20.69952,-0.972575 30.05043,0.766019 6.996983,26.739911 -28.776875,22.426913 -30.05043,-0.766019 z"
       id="path894" />
    <path
       style="fill:#fafafa;fill-opacity:1;stroke:#000000;stroke-width:1;stroke-linecap:butt;stroke-linejoin:round;stroke-miterlimit:4;stroke-dasharray:none;stroke-opacity:1"
       d="M 97.301021,75.746598 C 94.42049,100.42617 57.994319,98.845423 65.62904,77.547445 c 9.696977,0.653149 20.794406,-1.139006 31.671981,-1.800847 z"
       id="path896" />
    <path
       style="fill:#000000;fill-opacity:1;stroke:none;stroke-width:0.264583px;stroke-linecap:round;stroke-linejoin:miter;stroke-opacity:1"
       d="m 35.208169,84.148741 c 0.118517,4.498753 7.215612,4.535433 7.14375,0 -0.07054,-5.1454 -7.313763,-4.809367 -7.14375,0 z"
       id="path972" />
    <path
       style="fill:#000000;fill-opacity:1;stroke:none;stroke-width:0.264583px;stroke-linecap:round;stroke-linejoin:miter;stroke-opacity:1"
       d="m 73.947154,85.231559 c 0.118517,4.498752 7.215612,4.535432 7.14375,0 -0.07054,-5.1454 -7.313763,-4.809367 -7.14375,0 z"
       id="path972-4" />
  </g>
  <g
     id="layer8"
     transform="translate(38.4354,-19.603831)"
     style="display:inline;opacity:1">
    <path
       style="fill:none;stroke:#000000;stroke-width:0.765;stroke-linecap:round;stroke-linejoin:miter;stroke-miterlimit:4;stroke-dasharray:none;stroke-opacity:1"
       d="M 51.84482,72.013903 C 40.8568,69.375881 34.652073,67.7754 19.565654,69.632653"
       id="path968" />
    <path
       style="fill:none;stroke:#000000;stroke-width:0.465;stroke-linecap:round;stroke-linejoin:miter;stroke-miterlimit:4;stroke-dasharray:none;stroke-opacity:1"
       d="m 22.343778,67.119112 c 7.188325,-0.609577 10.092984,-0.521467 19.579166,0.396875"
       id="path970" />
  </g>
  <g
     id="layer6"
     transform="translate(38.4354,-19.603831)"
     style="display:inline">
    <path
       style="fill:none;stroke:#000000;stroke-width:1.5;stroke-linecap:butt;stroke-linejoin:miter;stroke-miterlimit:4;stroke-dasharray:none;stroke-opacity:1"
       d="m 49.909734,90.751643 c 3.715497,7.736052 11.267174,7.771651 14.124721,0.309979"
       id="path966" />
  </g>
  <g
     id="layer7"
     transform="translate(38.4354,-19.603831)"
     style="display:inline;opacity:1">
    <path
       style="fill:none;stroke:#000000;stroke-width:1;stroke-linecap:round;stroke-linejoin:miter;stroke-miterlimit:4;stroke-dasharray:none;stroke-opacity:1"
       d="m -10.86143,59.619319 c 9.8058143,3.404863 17.7551966,16.822091 22.867204,23.8378"
       id="path1202" />
    <path
       style="fill:none;stroke:#000000;stroke-width:1;stroke-linecap:round;stroke-linejoin:miter;stroke-miterlimit:4;stroke-dasharray:none;stroke-opacity:1"
       d="m 127.68885,59.89717 c -9.80582,3.404863 -16.69687,17.086674 -21.80888,24.102383"
       id="path1206" />
  </g>
  <g
     id="layer10"
     style="display:inline"
     transform="translate(3.2323041,-18.457428)">
    <path
       style="fill:#ffffff;fill-opacity:1;stroke:#000000;stroke-width:1;stroke-linecap:round;stroke-linejoin:round;stroke-miterlimit:4;stroke-dasharray:none;stroke-opacity:1"
       d="m 68.883628,106.9953 2.10337,-8.797066 4.952341,7.629136 z"
       id="path1060-1" />
    <path
       style="display:inline;fill:#ffffff;fill-opacity:1;stroke:#000000;stroke-width:1;stroke-linecap:round;stroke-linejoin:round;stroke-miterlimit:4;stroke-dasharray:none;stroke-opacity:1"
       d="m 109.8372,106.20924 5.67525,-8.664767 2.57108,9.481207 z"
       id="path1060-1-5" />
    <path
       style="fill:none;stroke:#000000;stroke-width:2;stroke-linecap:round;stroke-linejoin:miter;stroke-miterlimit:4;stroke-dasharray:none;stroke-opacity:1"
       d="m 64.51349,107.69726 c 24.101796,-3.52351 22.916482,-3.70376 58.18458,-0.12678"
       id="path1050" />
  </g>
  <g
     id="g1210"
     style="display:inline"
     transform="translate(3.2323041,-18.457428)">
    <path
       style="fill:none;fill-opacity:1;stroke:#808080;stroke-width:2;stroke-linecap:butt;stroke-linejoin:round;stroke-miterlimit:4;stroke-dasharray:none;stroke-opacity:1"
       d="m 12.954732,48.608442 c 13.769832,7.524407 14.105479,69.561208 35.321873,50.800002 12.32117,31.331436 86.754645,26.378296 91.227285,0.598396 19.16558,19.40674 22.34161,-42.874635 35.32187,-50.799997 -21.89383,4.359195 -25.68634,14.960226 -34.03495,23.990186 C 82.042963,82.129826 94.337872,67.704575 47.738037,72.785715 40.420623,64.115621 36.870272,54.907375 12.954732,48.608442 Z"
       id="path1208" />
  </g>
</svg>
